<svg width="154" height="36" viewBox="0 0 154 36" fill="none" xmlns="http://www.w3.org/2000/svg">
<g id="logo 2">
<path id="Subtract" fill-rule="evenodd" clip-rule="evenodd" d="M0 17.4546C0 7.81484 7.8146 0.000244141 17.4544 0.000244141H69.3419C71.9898 0.000244141 74.5 0.589881 76.7484 1.64502C72.715 3.78418 69.8371 7.81283 69.2947 12.5513C69.2933 12.5513 69.2919 12.5514 69.2905 12.5515C68.5234 12.5856 67.7436 12.6197 66.951 12.6538C67.0021 11.9038 67.0575 11.1538 67.1172 10.4038C67.1854 9.64527 67.2621 8.88249 67.3473 8.11545H62.5022C62.5192 8.89101 62.532 9.66657 62.5405 10.4421C62.549 11.2092 62.5533 11.989 62.5533 12.7816H59.9581C59.7195 12.7816 59.4851 12.7773 59.255 12.7688C59.0334 12.7603 58.8118 12.756 58.5903 12.756V16.0032C59.1016 16.0032 59.613 15.9989 60.1243 15.9904C60.6357 15.9819 61.1471 15.9776 61.6584 15.9776H62.5789V17.3327C62.5789 20.3923 62.5533 23.4818 62.5022 26.6011L66.2351 26.2304C66.2777 24.5173 66.3373 22.817 66.4141 21.1295C66.4908 19.4421 66.5802 17.7503 66.6825 16.0543C67.5092 16.0799 68.3359 16.1097 69.1626 16.1438C69.1757 16.1443 69.1888 16.1449 69.2019 16.1454V21.8182C69.2019 27.2534 72.2595 31.9745 76.7484 34.3552C74.5 35.4103 71.9898 35.9999 69.3419 35.9999H17.4544C7.81458 35.9999 0 28.1853 0 18.5455V17.4546ZM34.8376 14.8782C34.2836 14.8782 33.7595 14.8867 33.2652 14.9037C32.7709 14.9123 32.2766 14.9293 31.7822 14.9549C31.2879 14.9804 30.7808 15.0145 30.2609 15.0572C29.7411 15.0998 29.1871 15.1509 28.599 15.2106C28.6843 14.7759 28.7439 14.3072 28.778 13.8043C28.8206 13.3015 28.8419 12.7859 28.8419 12.2575C28.8419 11.9336 28.8334 11.6097 28.8164 11.2859C28.8078 10.962 28.7823 10.6552 28.7396 10.3654C28.126 10.195 27.4314 10.0714 26.6559 9.99469C25.8803 9.90947 25.1005 9.86685 24.3164 9.86685C23.7624 9.86685 23.2255 9.88816 22.7056 9.93077C22.1857 9.96486 21.7085 10.016 21.2738 10.0842C21.1033 11.1239 20.9755 12.1893 20.8903 13.2802C20.8136 14.3626 20.7752 15.462 20.7752 16.5784C20.7752 17.7716 20.8178 18.9563 20.9031 20.1324C20.9883 21.3085 21.1119 22.4719 21.2738 23.6224C21.5891 23.7332 21.9471 23.8312 22.3477 23.9165C22.7482 24.0017 23.1658 24.0741 23.6005 24.1338C24.0351 24.1934 24.4741 24.2403 24.9172 24.2744C25.3689 24.3085 25.8036 24.3255 26.2212 24.3255C26.511 24.3255 26.788 24.3213 27.0522 24.3128C27.3249 24.2957 27.5806 24.2659 27.8192 24.2233C27.9385 23.7119 28.0323 23.1452 28.1005 22.523C28.1772 21.8923 28.2155 21.2616 28.2155 20.631C28.2155 20.1281 28.1899 19.6381 28.1388 19.1608C28.8206 19.229 29.4683 19.2801 30.082 19.3142C30.7041 19.3398 31.3391 19.3526 31.9868 19.3526C32.822 19.3526 33.7382 19.327 34.7353 19.2759C34.5734 20.2048 34.3305 21.0273 34.0067 21.7432C33.6828 22.4591 33.3035 23.0855 32.8689 23.6224C32.4427 24.1593 31.974 24.6196 31.4626 25.0031C30.9598 25.3866 30.4399 25.7062 29.903 25.9619C29.3746 26.2176 28.8462 26.4221 28.3178 26.5755C27.7894 26.7289 27.2908 26.844 26.8221 26.9207C26.3618 26.9974 25.94 27.0443 25.5564 27.0613C25.1814 27.0869 24.8789 27.0997 24.6488 27.0997C23.2851 27.0997 22.0962 26.9633 21.082 26.6906C20.0764 26.4179 19.2156 26.0471 18.4997 25.5784C17.7838 25.1096 17.1915 24.5642 16.7227 23.942C16.2625 23.3199 15.9003 22.6594 15.6361 21.9605C15.3719 21.2531 15.1886 20.5287 15.0864 19.7872C14.9841 19.0458 14.9329 18.3256 14.9329 17.6267C14.9329 16.033 15.1332 14.5969 15.5338 13.3185C15.9344 12.0401 16.5565 10.9407 17.4003 10.0203C18.2525 9.09982 19.3349 8.37539 20.6474 7.84698C21.9599 7.31006 23.528 6.99046 25.3519 6.88819C26.528 6.88819 27.6488 7.0629 28.7141 7.41233C29.7794 7.76176 30.734 8.27312 31.5777 8.94641C32.43 9.6197 33.1416 10.4549 33.7126 11.4521C34.2836 12.4492 34.6586 13.5913 34.8376 14.8782ZM50.3318 18.8029C50.3318 19.9364 50.2721 21.0912 50.1528 22.2673C50.0335 23.4434 49.829 24.6196 49.5392 25.7957H45.0904C45.1926 24.5258 45.2736 23.273 45.3333 22.0372C45.4014 20.7929 45.4355 19.5401 45.4355 18.2787V17.0131C45.4355 16.587 45.427 16.1608 45.41 15.7347C45.0264 15.6921 44.6429 15.6665 44.2594 15.658C43.8844 15.641 43.5052 15.6324 43.1216 15.6324C42.3546 15.6324 41.5876 15.658 40.8205 15.7091V17.3583C40.8205 18.7645 40.8418 20.1665 40.8844 21.5642C40.927 22.9534 40.9952 24.3639 41.089 25.7957H36.7936C36.7936 22.7105 36.7509 19.6551 36.6657 16.6296C36.5805 13.604 36.4399 10.5657 36.2439 7.5146L41.089 7.23335C41.0293 8.34982 40.9782 9.46203 40.9356 10.57C40.893 11.6779 40.8631 12.7901 40.8461 13.9066C41.3404 13.5316 41.8518 13.2461 42.3802 13.0501C42.9086 12.8455 43.3901 12.6964 43.8248 12.6026C44.3361 12.4918 44.8347 12.4279 45.3205 12.4109C45.9426 12.4109 46.4966 12.4961 46.9824 12.6665C47.4767 12.837 47.9071 13.0756 48.2736 13.3825C48.6486 13.6807 48.9639 14.0344 49.2196 14.4435C49.4838 14.8526 49.6969 15.2958 49.8588 15.7731C50.0292 16.2418 50.1486 16.7361 50.2167 17.256C50.2934 17.7759 50.3318 18.2915 50.3318 18.8029ZM57.2479 12.6538C57.0604 14.5543 56.9326 16.4293 56.8644 18.2787C56.8048 20.1281 56.7749 21.9776 56.7749 23.827V24.8113C56.7749 25.1352 56.7835 25.4633 56.8005 25.7957H52.8502C52.8502 25.2673 52.8545 24.7432 52.863 24.2233C52.8716 23.7034 52.8758 23.1878 52.8758 22.6764C52.8758 20.9804 52.8332 19.3014 52.748 17.6395C52.6713 15.9776 52.5477 14.3157 52.3772 12.6538H57.2479ZM57.0306 9.35549C56.8857 9.61117 56.6854 9.83702 56.4298 10.033C56.1741 10.2205 55.8758 10.374 55.5349 10.4933C55.194 10.6041 54.8318 10.6595 54.4482 10.6595C54.0647 10.6595 53.7068 10.6041 53.3744 10.4933C53.042 10.374 52.7522 10.2205 52.5051 10.033C52.2579 9.83702 52.0619 9.61117 51.917 9.35549C51.7721 9.09129 51.6997 8.81005 51.6997 8.51175C51.6997 8.22198 51.7721 7.94926 51.917 7.69358C52.0619 7.42937 52.2579 7.20352 52.5051 7.01603C52.7522 6.82 53.042 6.6666 53.3744 6.5558C53.7068 6.44501 54.0647 6.38961 54.4482 6.38961C54.8318 6.38961 55.194 6.44501 55.5349 6.5558C55.8758 6.6666 56.1741 6.82 56.4298 7.01603C56.6854 7.20352 56.8857 7.42937 57.0306 7.69358C57.1755 7.94926 57.2479 8.22198 57.2479 8.51175C57.2479 8.81005 57.1755 9.09129 57.0306 9.35549Z" fill="#BB8700"/>
<path id="Subtract_2" fill-rule="evenodd" clip-rule="evenodd" d="M90.5442 0C80.9044 0 73.0898 7.8146 73.0898 17.4544V18.5453C73.0898 28.1851 80.9044 35.9997 90.5442 35.9997H136.362C146.002 35.9997 153.816 28.1851 153.816 18.5453V17.4544C153.816 7.8146 146.002 0 136.362 0H90.5442ZM98.7203 15.9946C99.2147 15.9775 99.7388 15.969 100.293 15.969C100.114 14.6821 99.7388 13.5401 99.1678 12.5429C98.5968 11.5457 97.8851 10.7105 97.0329 10.0372C96.1891 9.36395 95.2346 8.85259 94.1692 8.50316C93.1039 8.15373 91.9832 7.97902 90.8071 7.97902C88.9832 8.08129 87.415 8.40089 86.1026 8.93782C84.7901 9.46622 83.7077 10.1906 82.8554 11.1111C82.0117 12.0315 81.3895 13.131 80.989 14.4094C80.5884 15.6878 80.3881 17.1238 80.3881 18.7176C80.3881 19.4164 80.4392 20.1366 80.5415 20.8781C80.6438 21.6195 80.827 22.344 81.0912 23.0513C81.3554 23.7502 81.7176 24.4107 82.1779 25.0329C82.6466 25.655 83.2389 26.2005 83.9548 26.6692C84.6707 27.138 85.5315 27.5087 86.5372 27.7814C87.5514 28.0541 88.7403 28.1905 90.1039 28.1905C90.3341 28.1905 90.6366 28.1777 91.0116 28.1521C91.3951 28.1351 91.817 28.0882 92.2772 28.0115C92.746 27.9348 93.2445 27.8198 93.7729 27.6664C94.3013 27.5129 94.8298 27.3084 95.3582 27.0527C95.8951 26.797 96.415 26.4774 96.9178 26.0939C97.4292 25.7104 97.8979 25.2502 98.324 24.7133C98.7587 24.1763 99.138 23.5499 99.4618 22.834C99.7857 22.1181 100.029 21.2957 100.191 20.3667C99.1934 20.4178 98.2772 20.4434 97.4419 20.4434C96.7942 20.4434 96.1593 20.4306 95.5371 20.4051C94.9235 20.371 94.2758 20.3198 93.594 20.2516C93.6451 20.7289 93.6707 21.219 93.6707 21.7218C93.6707 22.3525 93.6323 22.9832 93.5556 23.6138C93.4874 24.236 93.3937 24.8027 93.2744 25.3141C93.0357 25.3567 92.7801 25.3865 92.5073 25.4036C92.2431 25.4121 91.9661 25.4164 91.6764 25.4164C91.2588 25.4164 90.8241 25.3993 90.3724 25.3652C89.9292 25.3311 89.4903 25.2843 89.0557 25.2246C88.621 25.165 88.2034 25.0925 87.8028 25.0073C87.4023 24.9221 87.0443 24.824 86.729 24.7133C86.567 23.5627 86.4435 22.3994 86.3582 21.2232C86.273 20.0471 86.2304 18.8625 86.2304 17.6693C86.2304 16.5528 86.2687 15.4534 86.3454 14.371C86.4307 13.2801 86.5585 12.2148 86.729 11.175C87.1636 11.1068 87.6409 11.0557 88.1608 11.0216C88.6807 10.979 89.2176 10.9577 89.7716 10.9577C90.5556 10.9577 91.3355 11.0003 92.111 11.0855C92.8866 11.1622 93.5812 11.2858 94.1948 11.4563C94.2374 11.746 94.263 12.0528 94.2715 12.3767C94.2886 12.7006 94.2971 13.0244 94.2971 13.3483C94.2971 13.8767 94.2758 14.3923 94.2332 14.8952C94.1991 15.398 94.1394 15.8667 94.0542 16.3014C94.6423 16.2417 95.1962 16.1906 95.7161 16.148C96.236 16.1054 96.7431 16.0713 97.2374 16.0457C97.7317 16.0201 98.226 16.0031 98.7203 15.9946ZM115.608 23.3582C115.727 22.182 115.787 21.0272 115.787 19.8937C115.787 19.3823 115.749 18.8667 115.672 18.3468C115.604 17.8269 115.484 17.3326 115.314 16.8639C115.152 16.3866 114.939 15.9434 114.675 15.5344C114.419 15.1253 114.104 14.7716 113.729 14.4733C113.362 14.1665 112.932 13.9278 112.438 13.7574C111.952 13.5869 111.398 13.5017 110.776 13.5017C110.29 13.5187 109.791 13.5827 109.28 13.6935C108.845 13.7872 108.364 13.9364 107.835 14.1409C107.307 14.3369 106.796 14.6224 106.301 14.9974C106.318 13.881 106.348 12.7688 106.391 11.6608C106.433 10.5529 106.484 9.44065 106.544 8.32419L101.699 8.60543C101.895 11.6565 102.036 14.6949 102.121 17.7204C102.206 20.746 102.249 23.8013 102.249 26.8865H106.544C106.45 25.4547 106.382 24.0442 106.34 22.655C106.297 21.2573 106.276 19.8553 106.276 18.4491V16.8C107.043 16.7488 107.81 16.7233 108.577 16.7233C108.96 16.7233 109.34 16.7318 109.715 16.7488C110.098 16.7574 110.482 16.7829 110.865 16.8255C110.882 17.2517 110.891 17.6778 110.891 18.1039V19.3695C110.891 20.6309 110.857 21.8837 110.788 23.128C110.729 24.3638 110.648 25.6167 110.546 26.8865H114.994C115.284 25.7104 115.489 24.5343 115.608 23.3582ZM128.366 26.7715C128.375 27.0186 128.379 27.2658 128.379 27.5129L132.496 27.2445C132.47 26.6649 132.444 26.1152 132.419 25.5954C132.402 25.0669 132.385 24.5471 132.368 24.0357L132.342 22.4761V20.8014C132.342 18.3809 132.393 15.9477 132.496 13.5017L127.446 13.8469L127.651 15.4193C127.267 15.1721 126.879 14.9804 126.487 14.844C126.095 14.6991 125.733 14.5969 125.401 14.5372C125.068 14.469 124.787 14.4307 124.557 14.4221C124.335 14.4051 124.207 14.3966 124.173 14.3966C123.074 14.4051 122.107 14.5798 121.271 14.9207C120.436 15.2531 119.737 15.7261 119.175 16.3397C118.612 16.9534 118.19 17.6906 117.909 18.5514C117.628 19.4036 117.487 20.3497 117.487 21.3894C117.53 22.4207 117.739 23.3283 118.114 24.1124C118.497 24.888 118.996 25.5357 119.609 26.0556C120.223 26.5755 120.922 26.9632 121.706 27.2189C122.499 27.4831 123.321 27.6152 124.173 27.6152C124.642 27.5982 125.115 27.53 125.592 27.4107C126.001 27.3084 126.449 27.155 126.935 26.9505C127.429 26.7374 127.902 26.4263 128.354 26.0172C128.354 26.2644 128.358 26.5158 128.366 26.7715ZM125.401 24.2147C124.42 24.3084 123.423 24.3766 122.409 24.4192C122.341 24.0783 122.281 23.7587 122.23 23.4604C122.187 23.1621 122.149 22.8681 122.115 22.5783C122.089 22.2886 122.068 21.9988 122.051 21.709C122.034 21.4107 122.026 21.0911 122.026 20.7502C122.026 19.8468 122.077 18.9477 122.179 18.0528C123.023 17.925 123.858 17.8355 124.685 17.7843C125.52 17.7247 126.351 17.6948 127.177 17.6948H127.906C128.017 18.7261 128.102 19.736 128.162 20.7247C128.23 21.7133 128.277 22.736 128.302 23.7928C127.348 23.9803 126.381 24.1209 125.401 24.2147ZM144.615 17.2346C145.45 17.2687 146.281 17.3071 147.108 17.3497V13.5017C146.307 13.5528 145.518 13.5997 144.743 13.6423C143.976 13.6764 143.196 13.7105 142.403 13.7446C142.454 12.9946 142.51 12.2446 142.569 11.4946C142.638 10.7361 142.714 9.97332 142.8 9.20628H137.954C137.971 9.98184 137.984 10.7574 137.993 11.533C138.001 12.3 138.006 13.0798 138.006 13.8724H135.41C135.172 13.8724 134.937 13.8682 134.707 13.8597C134.486 13.8511 134.264 13.8469 134.042 13.8469V17.094C134.554 17.094 135.065 17.0897 135.577 17.0812C136.088 17.0727 136.599 17.0684 137.111 17.0684H138.031V18.4235C138.031 21.4832 138.006 24.5726 137.954 27.6919L141.687 27.3212C141.73 25.6081 141.79 23.9079 141.866 22.2204C141.943 20.5329 142.032 18.8411 142.135 17.1451C142.961 17.1707 143.788 17.2005 144.615 17.2346Z" fill="#00B0BB"/>
</g>
</svg>
